#!OML:ASF H:\IndianDance\Patient Classification 1\Patient 1\Session 1\dancer.ASF
:FULLY-SPECIFIED
:DEGREES
3265
root -7.31182 15.019 7.37528 362.739 4.98358 -349.18
lowerback -1.37645 4.2546 -3.82129
upperback -7.66469 5.58432 -0.698543
thorax -7.54847 2.99415 1.0838
lowerneck -16.7295 -1.70151 0.22125
upperneck 27.8607 -0.10547 -7.6977
head 11.9226 -0.999994 -2.93759
rclavicle -4.8901e-014 -1.43125e-014
rhumerus 18.3242 59.923 -63.3186
rradius 61.1801
rwrist -84.7754
rhand -19.5874 -25.6124
rfingers 7.12502
rthumb 6.73813 -55.4852
lclavicle -4.8901e-014 -1.43125e-014
lhumerus 43.2679 19.8665 -5.89041
lradius 74.683
lwrist -0.329723
lhand -66.6978 -411.944
lfingers 7.12502
lthumb -38.5018 333.717
rfemur -38.4307 -7.02024 30.2789
rtibia 58.4788
rfoot 21.7794 17.1663
rtoes 19.3989
lfemur -10.9485 6.01915 -38.7887
ltibia 37.321
lfoot -12.2242 -7.74363
ltoes 21.908
3266
root -7.32714 15.005 7.35717 363.192 7.06337 -349.135
lowerback -1.38357 4.30972 -3.72103
upperback -7.69729 5.66449 -0.737953
thorax -7.56881 3.02877 0.981552
lowerneck -16.7014 -1.61819 0.335229
upperneck 27.8294 0.0050192 -7.74012
head 11.9093 -0.93694 -2.95406
rclavicle -3.29983e-014 -3.73715e-014
rhumerus 18.9755 60.8413 -62.5958
rradius 62.1192
rwrist -84.9345
rhand -19.859 -25.8461
rfingers 7.12502
rthumb 6.47593 -55.7271
lclavicle -3.29983e-014 -3.73715e-014
lhumerus 43.334 19.8727 -5.81119
lradius 74.591
lwrist -0.295394
lhand -66.6994 -411.864
lfingers 7.12502
lthumb -38.5033 333.797
rfemur -38.2836 -6.5544 29.9162
rtibia 57.7928
rfoot 19.6337 17.899
rtoes 19.9794
lfemur -10.939 6.2398 -38.859
ltibia 37.1591
lfoot -12.7134 -7.3673
ltoes 21.3433
3267
root -7.34206 14.9936 7.33923 363.654 9.11311 -349.076
lowerback -1.38924 4.37464 -3.62776
upperback -7.72831 5.75789 -0.773836
thorax -7.58983 3.07049 0.885924
lowerneck -16.6861 -1.54244 0.457908
upperneck 27.8009 0.106644 -7.79716
head 11.8994 -0.87911 -2.97929
rclavicle -2.90226e-014 4.77083e-015
rhumerus 19.6732 61.7109 -61.7944
rradius 63.0753
rwrist -85.0982
rhand -20.244 -26.1433
rfingers 7.12502
rthumb 6.10426 -56.0354
lclavicle -2.90226e-014 4.77083e-015
lhumerus 43.3872 19.8771 -5.73808
lradius 74.5144
lwrist -0.278581
lhand -66.7227 -411.707
lfingers 7.12502
lthumb -38.5253 333.947
rfemur -38.2058 -6.1263 29.5654
rtibia 57.1662
rfoot 17.3193 18.237
rtoes 20.6436
lfemur -10.9469 6.40445 -38.9141
ltibia 36.9891
lfoot -13.1739 -7.11636
ltoes 20.7693
3268
root -7.35685 14.9824 7.32114 364.123 11.1333 -348.995
lowerback -1.38858 4.45136 -3.54787
upperback -7.75367 5.86655 -0.811562
thorax -7.61007 3.12041 0.794498
lowerneck -16.694 -1.47745 0.598807
upperneck 27.7705 0.190246 -7.86484
head 11.8925 -0.829285 -3.01477
rclavicle 8.46823e-014 6.36111e-014
rhumerus 20.4142 62.5214 -60.9275
rradius 64.0371
rwrist -85.2595
rhand -20.698 -26.511
rfingers 7.12502
rthumb 5.66591 -56.4152
lclavicle 8.46823e-014 6.36111e-014
lhumerus 43.415 19.8961 -5.67826
lradius 74.4764
lwrist -0.266007
lhand -66.7586 -411.392
lfingers 7.12502
lthumb -38.5591 334.253
rfemur -38.1891 -5.78347 29.2594
rtibia 56.6157
rfoot 14.7634 18.2134
rtoes 20.7199
lfemur -10.9775 6.53943 -38.9588
ltibia 36.8257
lfoot -13.6038 -7.00032
ltoes 20.2753
3269
root -7.37186 14.9721 7.30274 364.602 13.1238 -348.881
lowerback -1.38086 4.53481 -3.49701
upperback -7.77335 5.98353 -0.844852
thorax -7.63213 3.17639 0.722605
lowerneck -16.7237 -1.42182 0.744538
upperneck 27.7414 0.263312 -7.94722
head 11.8903 -0.786093 -3.05873
rclavicle 1.00983e-013 4.13472e-014
rhumerus 21.2148 63.2935 -59.9744
rradius 64.9981
rwrist -85.4176
rhand -21.1921 -26.9434
rfingers 7.12502
rthumb 5.18884 -56.8599
lclavicle 1.00983e-013 4.13472e-014
lhumerus 43.3962 19.9261 -5.64325
lradius 74.4727
lwrist -0.245875
lhand -66.7989 -411.142
lfingers 7.12502
lthumb -38.5971 334.493
rfemur -38.2415 -5.52222 28.9807
rtibia 56.1542
rfoot 12.1038 17.7187
rtoes 20.3121
lfemur -11.0311 6.66304 -39.0077
ltibia 36.6734
lfoot -14.0062 -6.97766
ltoes 19.7993
3270
root -7.38732 14.9627 7.28315 365.095 15.0889 -348.755
lowerback -1.35715 4.62461 -3.44865
upperback -7.79279 6.10876 -0.872566
thorax -7.66423 3.2368 0.655819
lowerneck -16.7827 -1.36969 0.872909
upperneck 27.7244 0.332574 -8.01336
head 11.8989 -0.74513 -3.09516
rclavicle -3.97569e-016 1.19271e-014
rhumerus 22.0759 64.0246 -58.9397
rradius 65.956
rwrist -85.5631
rhand -21.6656 -27.462
rfingers 7.12502
rthumb 4.73166 -57.3892
lclavicle -3.97569e-016 1.19271e-014
lhumerus 43.3411 19.9675 -5.62939
lradius 74.4972
lwrist -0.216388
lhand -66.8228 -411.027
lfingers 7.12502
lthumb -38.6197 334.601
rfemur -38.37 -5.34071 28.7534
rtibia 55.7666
rfoot 9.4936 16.7482
rtoes 19.5417
lfemur -11.1296 6.77477 -39.046
ltibia 36.5514
lfoot -14.3729 -7.02059
ltoes 19.4064
3271
root -7.40302 14.9535 7.26272 365.599 17.0222 -348.586
lowerback -1.31882 4.72533 -3.41599
upperback -7.80243 6.24708 -0.911717
thorax -7.69494 3.304 0.583978
lowerneck -16.8744 -1.3252 0.976809
upperneck 27.7229 0.390676 -8.05109
head 11.9199 -0.709034 -3.11949
rclavicle 1.07344e-014 -8.74653e-015
rhumerus 23.005 64.703 -57.8208
rradius 66.9112
rwrist -85.6932
rhand -21.6914 -26.588
rfingers 7.12502
rthumb 4.70676 -56.5157
lclavicle 1.07344e-014 -8.74653e-015
lhumerus 43.2823 20.0232 -5.62768
lradius 74.5329
lwrist -0.183815
lhand -66.8175 -411.059
lfingers 7.12502
lthumb -38.6147 334.57
rfemur -38.5531 -5.23488 28.5377
rtibia 55.4336
rfoot 7.06606 15.3925
rtoes 18.4713
lfemur -11.2549 6.89207 -39.1106
ltibia 36.458
lfoot -14.7071 -7.09446
ltoes 19.0993
3272
root -7.41896 14.9446 7.24142 366.116 18.9262 -348.372
lowerback -1.25863 4.83536 -3.40362
upperback -7.80857 6.39611 -0.957792
thorax -7.73634 3.37739 0.513163
lowerneck -16.9921 -1.28204 1.03187
upperneck 27.7494 0.445246 -8.02766
head 11.9572 -0.672668 -3.11421
rclavicle 5.725e-014 7.95139e-016
rhumerus 23.9816 65.3367 -56.6264
rradius 67.8546
rwrist -85.7619
rhand -22.0539 -26.2438
rfingers 7.12502
rthumb 4.35675 -56.179
lclavicle 5.725e-014 7.95139e-016
lhumerus 43.2272 20.0744 -5.63267
lradius 74.5595
lwrist -0.156212
lhand -66.7813 -411.283
lfingers 7.12502
lthumb -38.5806 334.356
rfemur -38.7774 -5.18215 28.3137
rtibia 55.1262
rfoot 4.94668 13.7666
rtoes 17.3333
lfemur -11.4037 7.00991 -39.2095
ltibia 36.3949
lfoot -15.0049 -7.1685
ltoes 18.8949
3273
root -7.43514 14.936 7.21958 366.636 20.7974 -348.128
lowerback -1.17736 4.95564 -3.39367
upperback -7.80275 6.5575 -1.01207
thorax -7.77644 3.45636 0.432775
lowerneck -17.155 -1.24097 1.03874
upperneck 27.8045 0.493 -7.93628
head 12.0147 -0.636959 -3.07764
rclavicle -5.76476e-014 -2.46493e-014
rhumerus 25.0102 65.9089 -55.3683
rradius 68.7718
rwrist -85.7068
rhand -22.2307 -25.813
rfingers 7.12502
rthumb 4.18598 -55.7516
lclavicle -5.76476e-014 -2.46493e-014
lhumerus 43.1977 20.128 -5.63787
lradius 74.5628
lwrist -0.133428
lhand -66.7108 -411.699
lfingers 7.12502
lthumb -38.514 333.959
rfemur -39.0143 -5.14735 28.0699
rtibia 54.8161
rfoot 3.18436 12.0251
rtoes 16.3843
lfemur -11.5593 7.13709 -39.3318
ltibia 36.3536
lfoot -15.2708 -7.21308
ltoes 18.7075
3274
root -7.45152 14.9278 7.19729 367.155 22.6397 -347.865
lowerback -1.0762 5.08436 -3.37776
upperback -7.78922 6.72967 -1.06488
thorax -7.8192 3.53999 0.348104
lowerneck -17.2884 -1.21497 0.97052
upperneck 27.8522 0.524441 -7.78961
head 12.0625 -0.608826 -3.00843
rclavicle 1.74931e-014 9.54166e-015
rhumerus 26.0993 66.4411 -54.013
rradius 69.6784
rwrist -85.5385
rhand -22.4926 -25.5774
rfingers 7.12502
rthumb 3.93306 -55.5208
lclavicle 1.74931e-014 9.54166e-015
lhumerus 43.2094 20.1608 -5.6186
lradius 74.5201
lwrist -0.142935
lhand -66.6124 -412.233
lfingers 7.12502
lthumb -38.4211 333.451
rfemur -39.2465 -5.10398 27.791
rtibia 54.4846
rfoot 1.73002 10.345
rtoes 15.6941
lfemur -11.7132 7.26587 -39.4676
ltibia 36.3281
lfoot -15.507 -7.23238
ltoes 18.5528
3275
root -7.46828 14.9203 7.1748 367.661 24.4556 -347.597
lowerback -0.953863 5.22132 -3.34756
upperback -7.7626 6.91263 -1.11427
thorax -7.85854 3.62768 0.256855
lowerneck -17.428 -1.1998 0.875758
upperneck 27.8945 0.540496 -7.61911
head 12.1086 -0.587501 -2.92765
rclavicle 4.41302e-014 3.89618e-014
rhumerus 27.2598 66.9197 -52.561
rradius 70.5729
rwrist -85.2618
rhand -22.7822 -25.8026
rfingers 7.12502
rthumb 3.6534 -55.751
lclavicle 4.41302e-014 3.89618e-014
lhumerus 43.2804 20.1747 -5.56778
lradius 74.418
lwrist -0.209812
lhand -66.4873 -412.783
lfingers 7.12502
lthumb -38.3031 332.933
rfemur -39.4544 -5.02692 27.4703
rtibia 54.1268
rfoot 0.51905 8.84735
rtoes 15.2128
lfemur -11.848 7.38149 -39.5975
ltibia 36.3035
lfoot -15.7153 -7.23952
ltoes 18.4535
3276
root -7.48543 14.9127 7.15218 368.15 26.2551 -347.331
lowerback -0.804657 5.36359 -3.30085
upperback -7.72772 7.10266 -1.15449
thorax -7.90325 3.71769 0.162936
lowerneck -17.538 -1.19988 0.761125
upperneck 27.9064 0.535766 -7.44169
head 12.1354 -0.576003 -2.84221
rclavicle 1.70955e-014 1.27222e-014
rhumerus 28.4591 67.3576 -51.0298
rradius 71.4689
rwrist -84.903
rhand -23.1682 -26.4627
rfingers 7.12502
rthumb 3.28064 -56.4172
lclavicle 1.70955e-014 1.27222e-014
lhumerus 43.3703 20.1778 -5.51013
lradius 74.2913
lwrist -0.28564
lhand -66.3717 -413.27
lfingers 7.12502
lthumb -38.194 332.476
rfemur -39.6282 -4.91736 27.1081
rtibia 53.7448
rfoot -0.518355 7.60236
rtoes 14.5589
lfemur -11.9546 7.455 -39.7088
ltibia 36.2734
lfoot -15.9036 -7.27054
ltoes 18.4278
3277
root -7.50347 14.9072 7.12958 368.612 28.0507 -347.087
lowerback -0.629144 5.5071 -3.22432
upperback -7.68882 7.29536 -1.17754
thorax -7.95661 3.80732 0.0673686
lowerneck -17.6093 -1.2162 0.642662
upperneck 27.8838 0.511489 -7.28326
head 12.1397 -0.575242 -2.76447
rclavicle 2.10712e-014 -1.03368e-014
rhumerus 29.6855 67.7646 -49.4287
rradius 72.3856
rwrist -84.549
rhand -23.6477 -27.5334
rfingers 7.12502
rthumb 2.81759 -57.4945
lclavicle 2.10712e-014 -1.03368e-014
lhumerus 43.4926 20.1639 -5.44446
lradius 74.1255
lwrist -0.362009
lhand -66.249 -413.746
lfingers 7.12502
lthumb -38.0782 332.032
rfemur -39.7691 -4.72963 26.6834
rtibia 53.3598
rfoot -1.3541 6.59076
rtoes 14.301
lfemur -12.0251 7.46172 -39.769
ltibia 36.2228
lfoot -16.084 -7.35831
ltoes 18.4555
3278
root -7.52233 14.9019 7.10712 369.042 29.8524 -346.871
lowerback -0.424835 5.65319 -3.11572
upperback -7.64448 7.49266 -1.18493
thorax -8.01798 3.89723 -0.0330543
lowerneck -17.6419 -1.25116 0.536518
upperneck 27.8228 0.46004 -7.14859
head 12.1195 -0.587573 -2.70018
rclavicle -4.41302e-014 1.74931e-014
rhumerus 30.9057 68.1215 -47.8088
rradius 73.3092
rwrist -84.1927
rhand -24.1629 -28.727
rfingers 7.12502
rthumb 2.32006 -58.6941
lclavicle -4.41302e-014 1.74931e-014
lhumerus 43.6474 20.1515 -5.38391
lradius 73.9393
lwrist -0.405203
lhand -66.1652 -413.974
lfingers 7.12502
lthumb -37.999 331.826
rfemur -39.8763 -4.49763 26.224
rtibia 52.9818
rfoot -2.06184 5.81528
rtoes 13.8544
lfemur -12.0584 7.38915 -39.7643
ltibia 36.1567
lfoot -16.28 -7.53623
ltoes 18.5373
